<?xml version="1.0" standalone="no"?>
<!DOCTYPE svg PUBLIC "-//W3C//DTD SVG 20010904//EN"
 "http://www.w3.org/TR/2001/REC-SVG-20010904/DTD/svg10.dtd">
<svg version="1.0" xmlns="http://www.w3.org/2000/svg"
 width="337.000000pt" height="118.000000pt" viewBox="0 0 337.000000 118.000000"
 preserveAspectRatio="xMidYMid meet">

<g transform="translate(0.000000,118.000000) scale(0.100000,-0.100000)"
fill="#000000" stroke="none">
<path d="M592 841 c58 -3 109 -9 113 -12 3 -4 26 -58 50 -120 49 -129 72 -131
30 -3 -29 89 -45 126 -60 136 -5 4 -62 7 -125 6 l-115 -2 107 -5z"/>
<path d="M1220 844 c0 -2 18 -8 40 -14 54 -15 80 -56 80 -128 0 -33 4 -51 10
-47 6 3 10 33 10 65 0 51 -4 64 -27 89 -20 20 -41 31 -70 34 -24 3 -43 3 -43
1z"/>
<path d="M1575 841 l50 -6 5 -85 c3 -53 12 -97 22 -117 24 -43 35 -48 30 -12
-2 16 -8 32 -13 35 -5 3 -9 42 -9 88 0 50 -5 87 -12 94 -7 7 -36 11 -67 10
l-56 -1 50 -6z"/>
<path d="M1865 843 c28 -2 54 -8 59 -13 5 -5 8 -53 8 -107 l-1 -98 14 50 c8
28 15 75 15 106 0 66 -5 70 -88 67 l-57 -2 50 -3z"/>
<path d="M2272 841 c58 -3 108 -8 111 -11 2 -3 26 -61 52 -130 37 -97 49 -145
55 -215 l9 -90 -4 110 c-3 89 -9 128 -34 206 -45 140 -38 134 -178 135 l-118
1 107 -6z"/>
<path d="M2677 843 c36 -4 49 -11 88 -56 43 -50 63 -48 28 3 -34 49 -53 60
-107 58 -50 -1 -50 -2 -9 -5z"/>
<path d="M3020 841 c26 -4 36 -12 40 -31 5 -22 7 -23 13 -6 11 28 -11 46 -52
45 l-36 -2 35 -6z"/>
<path d="M2860 675 c21 -22 26 -24 28 -10 4 20 4 20 -28 30 l-25 7 25 -27z"/>
<path d="M1318 601 c-15 -18 -15 -19 3 -24 15 -4 19 0 19 19 0 29 -1 29 -22 5z"/>
<path d="M2288 563 c7 -3 16 -2 19 1 4 3 -2 6 -13 5 -11 0 -14 -3 -6 -6z"/>
<path d="M1390 395 c0 -38 3 -65 7 -62 7 8 5 119 -3 126 -2 2 -4 -26 -4 -64z"/>
<path d="M1796 414 c-10 -26 -7 -114 4 -114 6 0 10 28 10 65 0 66 -3 77 -14
49z"/>
</g>
</svg>
