<?xml version="1.0" standalone="no"?>
<!DOCTYPE svg PUBLIC "-//W3C//DTD SVG 20010904//EN"
 "http://www.w3.org/TR/2001/REC-SVG-20010904/DTD/svg10.dtd">
<svg version="1.0" xmlns="http://www.w3.org/2000/svg"
 width="337.000000pt" height="118.000000pt" viewBox="0 0 337.000000 118.000000"
 preserveAspectRatio="xMidYMid meet">

<g transform="translate(0.000000,118.000000) scale(0.100000,-0.100000)"
fill="#000000" stroke="none">
<path d="M433 818 c-11 -13 -41 -81 -67 -151 l-47 -128 3 -137 3 -137 69 -3
c92 -4 106 8 106 95 0 49 3 63 15 63 8 0 15 -4 15 -10 0 -5 20 -10 45 -10 l45
0 0 -54 c0 -84 2 -86 85 -86 106 0 108 3 103 182 -4 140 -5 145 -47 252 -63
162 -42 146 -185 146 -114 0 -124 -1 -143 -22z m153 -188 c11 -33 26 -61 34
-64 8 -2 -13 -4 -47 -5 -35 0 -63 0 -63 2 0 2 7 26 16 53 9 27 17 55 20 62 8
26 22 9 40 -48z"/>
<path d="M906 822 c-15 -17 -16 -48 -14 -288 l3 -269 74 -3 c102 -4 111 5 111
115 0 67 3 83 15 83 8 0 15 -4 15 -9 0 -6 19 -11 43 -13 l42 -3 5 -85 5 -85
74 -3 c107 -4 111 1 111 145 0 113 0 115 -29 144 -16 16 -38 29 -48 29 -11 0
-14 3 -7 8 39 25 47 145 14 199 -26 44 -67 53 -246 53 -134 0 -153 -2 -168
-18z m204 -130 c0 -4 10 -12 23 -17 15 -7 23 -20 25 -42 3 -32 2 -33 -37 -33
l-41 0 0 50 c0 38 4 50 15 50 8 0 15 -3 15 -8z"/>
<path d="M1467 822 c-14 -15 -17 -39 -17 -129 l0 -110 70 -96 c66 -91 69 -98
72 -159 l3 -63 79 -3 c101 -4 116 7 116 88 0 54 3 61 70 155 l71 98 -3 116 -3
116 -69 3 c-95 4 -106 -7 -106 -109 0 -85 -21 -149 -49 -149 -9 0 -27 17 -41
38 -20 30 -25 54 -30 127 l-5 90 -71 3 c-58 2 -73 0 -87 -16z"/>
<path d="M2112 817 c-12 -13 -43 -79 -69 -148 -43 -116 -46 -132 -51 -241 -2
-64 -2 -128 2 -142 6 -25 9 -26 80 -26 93 0 106 12 106 98 0 35 4 62 10 62 6
0 10 -4 10 -10 0 -5 22 -10 50 -10 l49 0 3 -67 3 -68 74 -3 c112 -4 114 -2
109 173 -4 140 -4 140 -52 265 -27 69 -54 128 -60 132 -6 4 -63 8 -127 8 -108
0 -117 -2 -137 -23z m135 -134 c-4 -3 -3 -11 2 -17 5 -6 14 -30 20 -53 7 -25
18 -43 29 -46 9 -3 -11 -5 -45 -6 -35 0 -63 2 -63 7 0 11 28 101 35 112 3 6
11 10 17 10 6 0 8 -3 5 -7z"/>
<path d="M2586 822 c-15 -17 -16 -48 -14 -288 l3 -269 69 -3 c103 -4 106 0
106 165 0 73 4 133 9 133 10 0 21 -24 21 -48 0 -8 19 -38 43 -66 38 -46 42
-57 47 -116 l5 -65 76 -3 c115 -4 110 -19 107 304 l-3 269 -74 3 c-94 4 -111
-9 -111 -83 0 -28 5 -56 11 -62 6 -6 9 -19 7 -28 -2 -12 -27 10 -86 79 l-83
96 -58 0 c-44 0 -62 -5 -75 -18z"/>
</g>
</svg>
